<svg width="84" height="84" viewBox="0 0 84 84" fill="none" xmlns="http://www.w3.org/2000/svg">
<g clip-path="url(#clip0_243_302)">
<path d="M84 0H0V84H84V0Z" fill="#181818"/>
<path fill-rule="evenodd" clip-rule="evenodd" d="M26.2595 38.5601C26.2195 38.8201 26.3995 39 26.6395 39H28.9995C29.1995 39 29.3595 38.84 29.3795 38.68L30.2595 32.5H30.2995L33.6795 38.98C33.7395 39.1 33.8995 39.2001 34.0195 39.2001H34.3795C34.4795 39.2001 34.6595 39.1 34.7195 38.98L38.0795 32.5H38.1195L39.0195 38.68C39.0395 38.84 39.2195 39 39.3995 39H41.7595C41.9995 39 42.1795 38.8201 42.1395 38.5601L39.8795 25.1201C39.8595 24.9401 39.6795 24.8 39.5195 24.8H39.1995C39.0995 24.8 38.9195 24.88 38.8595 25L34.2195 33.64H34.1795L29.5395 25C29.4795 24.88 29.2995 24.8 29.1995 24.8H28.8795C28.7195 24.8 28.5395 24.9401 28.5195 25.1201L26.2595 38.5601Z" fill="white"/>
<path fill-rule="evenodd" clip-rule="evenodd" d="M27.1899 57.62C27.1899 57.82 27.3699 58 27.5699 58H29.9499C30.1699 58 30.3299 57.82 30.3299 57.62V50.16H30.3499L38.2499 58.1C38.2899 58.14 38.4499 58.2001 38.5099 58.2001H38.8299C39.0299 58.2001 39.2099 58.04 39.2099 57.84V44.3801C39.2099 44.1801 39.0299 44 38.8299 44H36.4299C36.2099 44 36.0499 44.1801 36.0499 44.3801V51.48H36.0299L28.0499 43.8H27.5499C27.3499 43.8 27.1699 43.96 27.1699 44.16L27.1899 57.62Z" fill="white"/>
<path fill-rule="evenodd" clip-rule="evenodd" d="M47.0605 38.62C47.0605 38.82 47.2205 39 47.4405 39H55.7205C55.9405 39 56.1005 38.82 56.1005 38.62V36.44C56.1005 36.24 55.9405 36.06 55.7205 36.06H50.1805V33.36H54.7405C54.9405 33.36 55.1205 33.2 55.1205 32.98V30.8C55.1205 30.6 54.9405 30.42 54.7405 30.42H50.1805V27.94H55.7205C55.9405 27.94 56.1005 27.76 56.1005 27.56V25.38C56.1005 25.18 55.9405 25 55.7205 25H47.4405C47.2205 25 47.0605 25.18 47.0605 25.38V38.62Z" fill="white"/>
<path fill-rule="evenodd" clip-rule="evenodd" d="M45.5098 52.64C45.5098 55.68 48.0498 58.2 51.1898 58.2C54.3498 58.2 56.9098 55.68 56.9098 52.64V44.38C56.9098 44.18 56.7298 44 56.5298 44H54.0698C53.8498 44 53.6898 44.18 53.6898 44.38V52.48C53.6898 53.88 52.6298 55 51.1898 55C49.7698 55 48.7298 53.88 48.7298 52.48V44.38C48.7298 44.18 48.5698 44 48.3498 44H45.8898C45.6898 44 45.5098 44.18 45.5098 44.38V52.64Z" fill="white"/>
</g>
<defs>
<clipPath id="clip0_243_302">
<rect width="84" height="84" fill="white"/>
</clipPath>
</defs>
</svg>
