<svg width="84" height="84" viewBox="0 0 84 84" fill="none" xmlns="http://www.w3.org/2000/svg">
<g clip-path="url(#clip0_256_254)">
<path d="M84 0H0V84H84V0Z" fill="#181818"/>
<path d="M35.0719 43.4384L34.2584 42.6248C33.9139 42.2803 33.9139 41.7233 34.2584 41.3825L41.3788 34.2584C41.7233 33.9139 42.2803 33.9139 42.6212 34.2584L49.7416 41.3788C50.0861 41.7233 50.0861 42.2803 49.7416 42.6212L48.9281 43.4347C48.5799 43.7829 48.0119 43.7755 47.6711 43.4201L43.4677 39.0078V49.5401C43.4677 50.0275 43.0756 50.4196 42.5882 50.4196H41.4155C40.9281 50.4196 40.536 50.0275 40.536 49.5401V39.0078L36.3289 43.4237C35.9881 43.7829 35.4201 43.7902 35.0719 43.4384Z" fill="#595959"/>
</g>
<defs>
<clipPath id="clip0_256_254">
<rect width="84" height="84" fill="white"/>
</clipPath>
</defs>
</svg>
