<?xml version="1.0" encoding="UTF-8"?>
<svg width="30px" height="42px" viewBox="0 0 30 42" version="1.1" xmlns="http://www.w3.org/2000/svg" xmlns:xlink="http://www.w3.org/1999/xlink">
    <!-- Generator: Sketch 42 (36781) - http://www.bohemiancoding.com/sketch -->
    <title>Footer_Logo</title>
    <desc>Created with Sketch.</desc>
    <defs></defs>
    <g id="Symbols" stroke="none" stroke-width="1" fill="none" fill-rule="evenodd">
        <g id="Desktop-HD---Footer" transform="translate(-330.000000, -132.000000)" fill="#FFFFFF">
            <path d="M351.689297,152.546916 C356.736422,151.972882 360,147.60817 360,142.306455 C360,136.636653 356.267921,132.037548 350.612911,132.001707 L350.612911,132 L334.005443,132 C331.802321,132 330,133.802321 330,136.005158 L330,152.480922 L330,152.612911 L330,169.088675 C330,169.465581 330.056607,169.829117 330.154745,170.175586 C330.69948,170.721744 331.323295,171.191383 332.029034,171.581658 C333.200144,172.231643 334.625275,172.55564 336.304426,172.55564 C338.584351,172.55564 340.365622,171.859857 341.64824,170.465448 C342.435333,169.610369 343.034685,168.588599 343.44601,167.398999 C343.946086,165.95424 345.267105,164.955511 346.795779,164.955511 L346.862342,164.955511 C349.326879,164.955511 351.033907,167.425738 350.15721,169.728988 C350.030911,170.060665 349.894372,170.385515 349.747307,170.70297 C349.348498,171.564306 348.885402,172.361071 348.358018,173.093833 L350.612911,173.093833 L350.612911,173.092411 C356.267921,173.056285 360,168.457464 360,162.787378 C360,157.485663 356.736422,153.120951 351.689297,152.546916" id="Footer_Logo"></path>
        </g>
    </g>
</svg>