<?xml version="1.0" encoding="UTF-8"?>
<svg width="84px" height="84px" viewBox="0 0 84 84" version="1.1" xmlns="http://www.w3.org/2000/svg" xmlns:xlink="http://www.w3.org/1999/xlink">
    <!-- Generator: Sketch 43.1 (39012) - http://www.bohemiancoding.com/sketch -->
    <title>Menu Button</title>
    <desc>Created with Sketch.</desc>
    <defs></defs>
    <g id="Symbols" stroke="none" stroke-width="1" fill="none" fill-rule="evenodd">
        <g id="Menu-Button">
            <rect id="Rectangle-2" fill="#000000" x="0" y="0" width="84" height="84"></rect>
            <path d="M26.26,38.56 C26.22,38.82 26.4,39 26.64,39 L29,39 C29.2,39 29.36,38.84 29.38,38.68 L30.26,32.5 L30.3,32.5 L33.68,38.98 C33.74,39.1 33.9,39.2 34.02,39.2 L34.38,39.2 C34.48,39.2 34.66,39.1 34.72,38.98 L38.08,32.5 L38.12,32.5 L39.02,38.68 C39.04,38.84 39.22,39 39.4,39 L41.76,39 C42,39 42.18,38.82 42.14,38.56 L39.88,25.12 C39.86,24.94 39.68,24.8 39.52,24.8 L39.2,24.8 C39.1,24.8 38.92,24.88 38.86,25 L34.22,33.64 L34.18,33.64 L29.54,25 C29.48,24.88 29.3,24.8 29.2,24.8 L28.88,24.8 C28.72,24.8 28.54,24.94 28.52,25.12 L26.26,38.56 Z" id="M" fill="#FFFFFF"></path>
            <path d="M27.19,57.62 C27.19,57.82 27.37,58 27.57,58 L29.95,58 C30.17,58 30.33,57.82 30.33,57.62 L30.33,50.16 L30.35,50.16 L38.25,58.1 C38.29,58.14 38.45,58.2 38.51,58.2 L38.83,58.2 C39.03,58.2 39.21,58.04 39.21,57.84 L39.21,44.38 C39.21,44.18 39.03,44 38.83,44 L36.43,44 C36.21,44 36.05,44.18 36.05,44.38 L36.05,51.48 L36.03,51.48 L28.05,43.8 L27.55,43.8 C27.35,43.8 27.17,43.96 27.17,44.16 L27.19,57.62 Z" id="N" fill="#FFFFFF"></path>
            <path d="M47.06,38.62 C47.06,38.82 47.22,39 47.44,39 L55.72,39 C55.94,39 56.1,38.82 56.1,38.62 L56.1,36.44 C56.1,36.24 55.94,36.06 55.72,36.06 L50.18,36.06 L50.18,33.36 L54.74,33.36 C54.94,33.36 55.12,33.2 55.12,32.98 L55.12,30.8 C55.12,30.6 54.94,30.42 54.74,30.42 L50.18,30.42 L50.18,27.94 L55.72,27.94 C55.94,27.94 56.1,27.76 56.1,27.56 L56.1,25.38 C56.1,25.18 55.94,25 55.72,25 L47.44,25 C47.22,25 47.06,25.18 47.06,25.38 L47.06,38.62 Z" id="E" fill="#FFFFFF"></path>
            <path d="M45.51,52.64 C45.51,55.68 48.05,58.2 51.19,58.2 C54.35,58.2 56.91,55.68 56.91,52.64 L56.91,44.38 C56.91,44.18 56.73,44 56.53,44 L54.07,44 C53.85,44 53.69,44.18 53.69,44.38 L53.69,52.48 C53.69,53.88 52.63,55 51.19,55 C49.77,55 48.73,53.88 48.73,52.48 L48.73,44.38 C48.73,44.18 48.57,44 48.35,44 L45.89,44 C45.69,44 45.51,44.18 45.51,44.38 L45.51,52.64 Z" id="U" fill="#FFFFFF"></path>
        </g>
    </g>
</svg>